<?xml version="1.0" encoding="utf-8"?>
<!-- Generator: Adobe Illustrator 23.0.4, SVG Export Plug-In . SVG Version: 6.00 Build 0)  -->
<svg version="1.1" id="icons" xmlns="http://www.w3.org/2000/svg" xmlns:xlink="http://www.w3.org/1999/xlink" x="0px" y="0px"
	 viewBox="0 0 24.6 25.6" style="enable-background:new 0 0 24.6 25.6;" xml:space="preserve">
<style type="text/css">
	.st0{fill:#FFFFFF;}
	.st1{opacity:0.2;}
	.st2{fill:none;stroke:#5B5B5B;stroke-width:1.6;stroke-linecap:round;stroke-linejoin:round;stroke-miterlimit:10;}
</style>
<circle class="st0" cx="12.3" cy="12.3" r="11.4"/>
<ellipse class="st1" cx="12.4" cy="24.7" rx="8.3" ry="0.9"/>
<g>
	<g>
		<circle class="st2" cx="12.3" cy="12.3" r="11.5"/>
	</g>
	<g>
		<path class="st2" d="M2.4,6.4c0.7-0.2,1.3-0.3,2-0.3c2.4,0,4.6,1.1,6.2,2.8c0.8,0.9,1.5,2,1.8,3.2c1,0.2,2,0.2,3,0.1
			c1.4-0.2,2.7-0.8,3.8-1.7c1.3-1,2.4-2.5,2.9-4.2"/>
		<path class="st2" d="M13.8,23.7c-3.1-2.7-3.8-8-1.4-11.5"/>
	</g>
	<path class="st2" d="M17.2,11.5c0-4.9-4.7-9.1-9.4-9.8"/>
	<path class="st2" d="M11.2,18c4.8,1.7,10.6-0.8,12.5-5.5"/>
	<path class="st2" d="M9.1,8.4c-4.3,3-5.5,9.6-2.4,13.9"/>
</g>
</svg>
