<?xml version="1.0" encoding="utf-8"?>
<!-- Generator: Adobe Illustrator 23.0.4, SVG Export Plug-In . SVG Version: 6.00 Build 0)  -->
<svg version="1.1" id="Layer_1" xmlns="http://www.w3.org/2000/svg" xmlns:xlink="http://www.w3.org/1999/xlink" x="0px" y="0px"
	 viewBox="0 0 538.2 300" style="enable-background:new 0 0 538.2 300;" xml:space="preserve">
<style type="text/css">
	.st0{fill:url(#SVGID_1_);}
	.st1{fill:#FFFFFF;}
	.st2{fill:#F7B871;}
	.st3{fill:none;stroke:#FFFFFF;stroke-width:4;stroke-linecap:round;stroke-miterlimit:10;}
	.st4{fill:none;stroke:#FFFFFF;stroke-width:2;stroke-linecap:round;stroke-miterlimit:10;}
	.st5{fill:none;stroke:#FFFFFF;stroke-width:2;stroke-linecap:round;stroke-miterlimit:10;stroke-dasharray:4;}
	.st6{fill:url(#SVGID_2_);}
</style>
<g>
	<g>
		
			<linearGradient id="SVGID_1_" gradientUnits="userSpaceOnUse" x1="269.1202" y1="415.2837" x2="269.1202" y2="151.7643" gradientTransform="matrix(6.123234e-17 1 1 -6.123234e-17 -149.9202 -119.1202)">
			<stop  offset="0" style="stop-color:#5092DE"/>
			<stop  offset="0.7026" style="stop-color:#3274BF"/>
		</linearGradient>
		<rect x="1" y="1" class="st0" width="268" height="298"/>
		<g>
			<path class="st1" d="M268,298H2V2h266V298 M270,300V0H0v300H270L270,300z"/>
		</g>
	</g>
	<g>
		<rect x="29" y="30" class="st2" width="240" height="240"/>
	</g>
	<g>
		<line class="st3" x1="189" y1="285" x2="189" y2="15.9"/>
	</g>
	<g>
		<line class="st4" x1="269" y1="269" x2="269" y2="26.9"/>
	</g>
	<g>
		<line class="st4" x1="29" y1="270" x2="29" y2="30.9"/>
	</g>
	<g>
		<line class="st4" x1="270.6" y1="30" x2="29.4" y2="30"/>
	</g>
	<g>
		<line class="st4" x1="270.6" y1="270" x2="29.4" y2="270"/>
	</g>
	<g>
		<line class="st5" x1="24.6" y1="30" x2="17.4" y2="30"/>
	</g>
	<g>
		<line class="st5" x1="24.6" y1="270" x2="18.4" y2="270"/>
	</g>
</g>
<g>
	<g>
		
			<linearGradient id="SVGID_2_" gradientUnits="userSpaceOnUse" x1="269.1202" y1="147.6433" x2="269.1202" y2="-115.8761" gradientTransform="matrix(-6.123234e-17 -1 -1 6.123234e-17 420.5202 419.1202)">
			<stop  offset="0" style="stop-color:#5092DE"/>
			<stop  offset="0.7026" style="stop-color:#3274BF"/>
		</linearGradient>
		<rect x="269.2" y="1" class="st6" width="268" height="298"/>
		<g>
			<path class="st1" d="M270.2,2h266v296h-266V2 M268.2,0v300h270V0H268.2L268.2,0z"/>
		</g>
	</g>
	<g>
		<rect x="269.2" y="30" class="st2" width="240" height="240"/>
	</g>
	<g>
		<line class="st3" x1="349.2" y1="15" x2="349.2" y2="284.1"/>
	</g>
	<g>
		<line class="st4" x1="269.2" y1="31" x2="269.2" y2="273.1"/>
	</g>
	<g>
		<line class="st4" x1="509.2" y1="30" x2="509.2" y2="269.1"/>
	</g>
	<g>
		<line class="st4" x1="267.6" y1="270" x2="508.8" y2="270"/>
	</g>
	<g>
		<line class="st4" x1="267.6" y1="30" x2="508.8" y2="30"/>
	</g>
	<g>
		<line class="st5" x1="513.6" y1="270" x2="520.8" y2="270"/>
	</g>
	<g>
		<line class="st5" x1="513.6" y1="30" x2="519.8" y2="30"/>
	</g>
</g>
</svg>
